<svg width="102" height="32" viewBox="0 0 102 32" fill="none" xmlns="http://www.w3.org/2000/svg">
<path d="M13.7272 16.2358L6.79004 4.06317L6.90762 4.00422C11.4344 1.58738 16.02 1.58738 20.5468 4.00422L20.6644 4.06317L13.7272 16.2358Z" fill="#D71920"/>
<path d="M73.5457 21.04H65.0212V28.2905H73.5457V21.04Z" fill="#008F86"/>
<path d="M21.8695 4.82948C21.8108 4.82948 21.7814 4.85895 21.752 4.88842L13.6978 18.8884L5.61421 4.8L5.49663 4.88842C2.08684 7.51158 0.0585938 11.6379 0.0585938 15.9116C0.0585938 23.5747 6.20211 29.7937 13.7566 29.7937C21.5462 29.7937 27.1312 24.1053 27.3958 15.9411C27.5721 10.96 24.1623 6.95158 23.1335 5.86106C22.1929 4.9179 21.9283 4.82948 21.8695 4.82948Z" fill="#008F86"/>
<path d="M25.5733 25.4021L25.5439 25.4316V28.32H37.7428V3.94525H25.5439L25.5733 6.86315C29.718 13.0231 29.718 19.0653 25.5733 25.4021Z" fill="#008F86"/>
<path d="M48.5014 14.379L48.1487 14.0842L48.4426 13.7305C49.7654 12.0505 50.0593 9.81053 49.2363 7.77685C48.325 5.4779 46.238 3.97474 43.8276 3.88632H39.0657V28.32H43.8276C47.208 28.1432 49.883 26.0211 50.8824 22.779C51.7936 19.7137 50.8824 16.5011 48.5014 14.379Z" fill="#008F86"/>
<path d="M51.0001 15.2632C53.0871 18.6526 53.0871 22.0126 51.0001 25.5495L50.9707 25.5789V28.32L63.6105 28.3495V3.88632L50.9707 3.85684L51.0001 15.2632Z" fill="#008F86"/>
<path d="M72.1936 3.85684V11.1074H65.0212V3.85684H72.1936Z" fill="#008F86"/>
<path d="M73.5457 12.3747H65.0212V19.5663H73.5457V12.3747Z" fill="#008F86"/>
<path d="M73.2812 11.0189H74.8098L74.8392 28.32H86.8617V3.85684H73.3106L73.2812 11.0189Z" fill="#008F86"/>
<path d="M89.7128 19.6842V28.32H101.882V3.88632H89.7128V12.4926H88.1255V19.6842H89.7128Z" fill="#008F86"/>
</svg>
