<svg width="16" height="16" viewBox="0 0 16 16" fill="none" xmlns="http://www.w3.org/2000/svg">
<mask id="mask0_2152_13708" style="mask-type:alpha" maskUnits="userSpaceOnUse" x="1" y="1" width="14" height="14">
<circle cx="8" cy="8" r="7" fill="#D9D9D9"/>
</mask>
<g mask="url(#mask0_2152_13708)">
<path d="M-5.98218 1H22.0178V15H-5.98218V1Z" fill="#012169"/>
<path d="M-5.98218 1V2.56406L18.887 15H22.0178V13.4359L-2.85132 1H-5.98218ZM22.0178 1V2.56406L-2.85132 15H-5.98218V13.4359L18.887 1H22.0178Z" fill="white"/>
<path d="M5.6854 1V15H10.3502V1H5.6854ZM-5.98218 5.66758V10.3324H22.0178V5.66758H-5.98218Z" fill="white"/>
<path d="M-5.98218 6.6V9.4H22.0178V6.6H-5.98218ZM6.61782 1V15H9.41783V1H6.61782ZM-5.98218 15L3.35025 10.3324H5.43931L-3.89585 15H-5.98218ZM-5.98218 1L3.35025 5.66758H1.26392L-5.98218 2.04453V1ZM10.5991 5.66758L19.9315 1H22.0178L12.6854 5.66758H10.5991ZM22.0178 15L12.6854 10.3324H14.7717L22.0178 13.9555V15Z" fill="#C8102E"/>
</g>
</svg>
